# xmcd
#
# Track frame offsets: 
#        150
#        16256
#        34980
#        41055
#        59111
#        74157
#        96393
#        108430
#        117569
#        137910
#        154238
#        170789
#
# Disc length: 2459 seconds
#
# Revision: 0
# Processed by: cddbd v1.5.2PL0 Copyright (c) Steve Scherf et al.
# Submitted via: ExactAudioCopyFreeDBPlugin 1.0
#
DISCID=bf09990c
DTITLE=Eric Bib and Bert Deivert - River Road
DYEAR=1980
DGENRE=Blues
TTITLE0=Needed Time
TTITLE1=Wonder Inside
TTITLE2=Lullaby Rag
TTITLE3=Anneli
TTITLE4=Takin' Your TIme
TTITLE5=There's a River
TTITLE6=Getting Better
TTITLE7=Sing a Song With Me
TTITLE8=If I Had To Pick a Number
TTITLE9=Distinction
TTITLE10=Morkrets Ljus
TTITLE11=On The River Road
EXTD=
EXTT0=
EXTT1=
EXTT2=
EXTT3=
EXTT4=
EXTT5=
EXTT6=
EXTT7=
EXTT8=
EXTT9=
EXTT10=
EXTT11=
PLAYORDER=
